<svg xmlns="http://www.w3.org/2000/svg" viewBox="0 0 248.96 57.08"><defs><style>.cls-1{fill:#fff;}.cls-2{fill:#dda14c;}</style></defs><title>Features2Asset 11</title><g id="Layer_2" data-name="Layer 2"><g id="Layer_1-2" data-name="Layer 1"><rect class="cls-1" width="248.96" height="57.08" rx="23.5"/><path class="cls-2" d="M65.93,29.08c0-4.76,3.6-8,8.22-8A7.15,7.15,0,0,1,81,25.24l-3.41,1.62a3.75,3.75,0,0,0-3.42-2.24A4.23,4.23,0,0,0,70,29.08a4.23,4.23,0,0,0,4.18,4.45,3.74,3.74,0,0,0,3.42-2.24L81,32.91A7.21,7.21,0,0,1,74.15,37C69.53,37,65.93,33.81,65.93,29.08Z"/><path class="cls-2" d="M81.86,31.18A6.09,6.09,0,1,1,87.93,37,5.75,5.75,0,0,1,81.86,31.18Zm8.52,0a2.44,2.44,0,1,0-4.85,0,2.44,2.44,0,1,0,4.85,0Z"/><path class="cls-2" d="M103.44,30.32a1.6,1.6,0,0,0-1.82-1.84,2.75,2.75,0,0,0-2.17,1.08v7.2H95.9V25.61h3.55V27a5,5,0,0,1,3.86-1.64c2.54,0,3.69,1.47,3.69,3.53v7.89h-3.56Z"/><path class="cls-2" d="M110.32,33.76v-5h-1.84v-3.1h1.84v-3h3.54v3h2.26v3.1h-2.26v4.06a1,1,0,0,0,1,1.13,1.45,1.45,0,0,0,.9-.27l.69,2.67a3.85,3.85,0,0,1-2.63.74C111.55,37,110.32,35.91,110.32,33.76Z"/><path class="cls-2" d="M124.47,35.66A4.6,4.6,0,0,1,121,37a3.68,3.68,0,0,1-3.83-3.67c0-2.7,2.12-3.51,3.83-3.51a4.45,4.45,0,0,1,3.46,1.29v-1.4c0-1-.83-1.62-2.26-1.62a5,5,0,0,0-3.16,1.18l-1.27-2.24a7.82,7.82,0,0,1,5-1.73c2.68,0,5.2,1,5.2,4.45v7h-3.56Zm0-2.75a2.53,2.53,0,0,0-2-.79c-.95,0-1.78.42-1.78,1.3s.83,1.29,1.78,1.29a2.47,2.47,0,0,0,2-.81Z"/><path class="cls-2" d="M136,25.34a5.35,5.35,0,0,1,4.57,2.05l-2.31,2.15a2.42,2.42,0,0,0-2.1-1.06,2.52,2.52,0,0,0-2.61,2.7,2.54,2.54,0,0,0,2.61,2.72,2.51,2.51,0,0,0,2.1-1.08L140.54,35A5.4,5.4,0,0,1,136,37a5.86,5.86,0,1,1,0-11.7Z"/><path class="cls-2" d="M142.89,33.76v-5h-1.84v-3.1h1.84v-3h3.54v3h2.26v3.1h-2.26v4.06a1,1,0,0,0,1,1.13,1.45,1.45,0,0,0,.9-.27L149,36.3a3.85,3.85,0,0,1-2.63.74C144.12,37,142.89,35.91,142.89,33.76Z"/><path class="cls-2" d="M156.47,21.37h4v9a3.11,3.11,0,1,0,6.21,0v-9h4v9.14c0,3.83-2.19,6.53-7.14,6.53s-7.15-2.72-7.15-6.51Z"/><path class="cls-2" d="M174,32.89a6.91,6.91,0,0,0,3.92,1.47c1.06,0,1.5-.34,1.5-.83s-.76-.78-1.91-1c-1.9-.32-4.58-.71-4.58-3.55,0-2,1.69-3.67,4.78-3.67a7.92,7.92,0,0,1,4.67,1.47L181,29.17A4.92,4.92,0,0,0,177.71,28c-.84,0-1.41.27-1.41.76s.6.69,1.78.9c1.89.32,4.7.78,4.7,3.74,0,2.12-1.87,3.69-5.07,3.69a8.31,8.31,0,0,1-5.22-1.71Z"/></g></g></svg>