<svg xmlns="http://www.w3.org/2000/svg" viewBox="0 0 544.3 90.85"><defs><style>.cls-1{fill:#dda14c;}</style></defs><title>Features2Asset 10</title><g id="Layer_2" data-name="Layer 2"><g id="Layer_1-2" data-name="Layer 1"><path class="cls-1" d="M9.15,21.39H51.42c15.72,0,24.48,9.79,24.48,21.91,0,10.82-7,18-15,19.71,9.15,1.42,16.62,10.57,16.62,21.13,0,13.28-8.89,23.2-25,23.2H9.15ZM48.32,57c7.73,0,12.12-4.64,12.12-11.09S56.05,34.66,48.32,34.66H24.23V57ZM49,94.07c8.24,0,13.14-4.51,13.14-12,0-6.44-4.51-11.85-13.14-11.85H24.23V94.07Z" transform="translate(-9.15 -18.04)"/><path class="cls-1" d="M92.26,45.1h13.53v9.15c4.64-5.93,12.12-10.57,20.24-10.57v13.4a20.55,20.55,0,0,0-4.26-.38c-5.67,0-13.27,3.86-16,8.24v42.4H92.26Z" transform="translate(-9.15 -18.04)"/><path class="cls-1" d="M135.3,26.42A8.45,8.45,0,0,1,143.68,18a8.38,8.38,0,0,1,0,16.75A8.45,8.45,0,0,1,135.3,26.42ZM137,45.1h13.53v62.24H137Z" transform="translate(-9.15 -18.04)"/><path class="cls-1" d="M170.74,92.91V57H160.43V45.1h10.31v-17h13.53v17H196.9V57H184.27v32.6c0,4.25,2.06,7.34,5.93,7.34a8.73,8.73,0,0,0,6.05-2.19l3.22,10.18c-2.44,2.32-6.44,4-12.75,4C176.28,108.89,170.74,103.22,170.74,92.91Z" transform="translate(-9.15 -18.04)"/><path class="cls-1" d="M236.84,43.55c18.69,0,30.67,14.31,30.67,33.89v3.23H219.45c1,9.4,8.11,17.13,19.84,17.13,6.06,0,13.27-2.44,17.65-6.83l6.19,8.9c-6.19,5.92-15.34,9-25.26,9-18.68,0-32.6-13-32.6-32.73C205.27,58.12,218.41,43.55,236.84,43.55ZM219.32,71.13h35.05c-.26-7.34-5.29-16.49-17.53-16.49C225.24,54.64,220,63.53,219.32,71.13Z" transform="translate(-9.15 -18.04)"/><path class="cls-1" d="M341.09,69.84H296.37v37.5H281.3V21.39h15.07V56.57h44.72V21.39h15.08v86H341.09Z" transform="translate(-9.15 -18.04)"/><path class="cls-1" d="M374.46,21.39h15.08v86H374.46Z" transform="translate(-9.15 -18.04)"/><path class="cls-1" d="M398.82,21.39H416L442,91l26-69.58h17.14l-33.76,86H432.58Z" transform="translate(-9.15 -18.04)"/><path class="cls-1" d="M494.56,21.39h58.89V34.66H509.63V57h42.92V70.23H509.63V94.07h43.82v13.27H494.56Z" transform="translate(-9.15 -18.04)"/></g></g></svg>