<svg xmlns="http://www.w3.org/2000/svg" viewBox="0 0 40.67 40.67"><defs><style>.cls-1{fill:#fff;}</style></defs><title>Features2Asset 5</title><g id="Layer_2" data-name="Layer 2"><g id="Layer_1-2" data-name="Layer 1"><path id="ic_call_24px" data-name="ic call 24px" class="cls-1" d="M8.18,17.6A34.22,34.22,0,0,0,23.07,32.49l5-5A2.26,2.26,0,0,1,30.35,27a25.65,25.65,0,0,0,8.06,1.29,2.26,2.26,0,0,1,2.26,2.26h0v7.88a2.26,2.26,0,0,1-2.26,2.26A38.41,38.41,0,0,1,0,2.26,2.26,2.26,0,0,1,2.26,0h7.91a2.26,2.26,0,0,1,2.26,2.26,25.47,25.47,0,0,0,1.29,8.07,2.26,2.26,0,0,1-.57,2.3Z"/></g></g></svg>